<?xml version="1.0" standalone="no"?>
<!DOCTYPE svg PUBLIC "-//W3C//DTD SVG 20010904//EN"
 "http://www.w3.org/TR/2001/REC-SVG-20010904/DTD/svg10.dtd">
<svg version="1.0" xmlns="http://www.w3.org/2000/svg"
 width="631.000000pt" height="631.000000pt" viewBox="0 0 631.000000 631.000000"
 preserveAspectRatio="xMidYMid meet">

<g transform="translate(0.000000,631.000000) scale(0.100000,-0.100000)"
fill="#000000" stroke="none">
<path d="M4183 5449 c-84 -16 -138 -62 -181 -155 l-24 -50 -53 4 c-116 10
-209 -37 -261 -130 l-29 -53 -3 -557 c-1 -307 -6 -558 -11 -558 -5 0 -28 32
-51 71 -53 90 -102 144 -154 172 -34 18 -59 22 -151 22 -103 1 -114 3 -179 35
-65 31 -71 32 -125 23 -31 -6 -58 -9 -61 -6 -2 2 -5 68 -5 146 -2 169 -19 222
-92 287 -58 51 -99 64 -188 58 l-71 -5 -17 46 c-21 60 -69 116 -120 142 -58
30 -146 36 -202 15 -54 -21 -126 -97 -145 -155 l-13 -41 -81 0 c-103 0 -170
-28 -216 -91 -59 -83 -60 -90 -60 -676 0 -294 -4 -532 -8 -529 -5 3 -31 43
-60 89 -79 129 -145 177 -246 180 -79 2 -141 -20 -195 -69 -64 -58 -93 -125
-99 -229 -4 -77 -2 -86 53 -240 93 -265 208 -479 345 -645 30 -36 105 -115
167 -176 l113 -111 0 -56 0 -57 -65 0 c-57 0 -69 -3 -90 -25 l-25 -24 0 -509
c0 -500 0 -510 21 -536 l20 -26 705 0 705 0 24 25 25 24 0 511 0 511 -25 24
c-22 22 -32 25 -105 25 l-80 0 0 62 c0 59 2 64 48 117 156 180 247 358 296
581 9 41 22 138 29 215 l12 140 50 -74 c91 -138 208 -273 328 -380 56 -50 63
-65 59 -124 l-4 -44 -65 -6 c-49 -4 -71 -10 -87 -26 l-21 -22 0 -753 0 -754
24 -26 24 -26 699 0 c437 0 706 4 718 10 39 21 40 50 40 806 l0 733 -23 27
c-21 24 -32 28 -105 32 l-82 5 0 51 c0 60 15 86 111 205 107 132 184 295 232
491 19 79 21 121 24 613 5 592 5 592 -65 669 -58 64 -103 82 -199 81 l-83 0 0
138 c0 114 -4 148 -20 192 -21 57 -73 113 -130 143 -37 18 -125 25 -171 12
-24 -7 -28 -4 -43 35 -51 132 -159 199 -283 176z m106 -188 c38 -38 41 -81 41
-612 0 -507 0 -517 21 -543 27 -34 71 -35 104 -1 l25 24 0 426 c0 461 2 476
54 510 32 21 85 14 112 -16 18 -20 19 -48 24 -469 l5 -448 24 -26 c32 -34 74
-34 106 -1 25 24 25 26 25 207 0 154 3 189 18 218 32 64 98 75 148 24 l25 -24
-3 -523 -4 -522 -26 -96 c-48 -175 -133 -330 -251 -455 -35 -38 -69 -79 -76
-91 -6 -12 -11 -62 -11 -112 l0 -91 -400 0 -400 0 0 91 c0 105 -9 126 -76 179
-71 55 -216 209 -284 300 -80 108 -158 242 -208 355 -47 107 -112 304 -112
340 0 73 62 145 125 145 60 0 87 -31 215 -247 67 -115 132 -218 143 -230 25
-28 67 -30 98 -4 l24 19 5 709 c5 661 6 711 23 736 36 55 110 58 149 7 17 -23
18 -54 21 -467 l3 -443 24 -25 c31 -33 73 -33 105 0 l25 24 0 519 c0 286 3
533 6 551 10 50 46 81 94 81 26 0 47 -7 59 -19z m-1955 -472 c56 -26 56 -30
56 -607 0 -524 0 -530 21 -556 18 -23 28 -27 63 -24 36 3 43 8 58 38 16 32 18
75 18 462 l0 426 26 31 c28 33 75 42 116 20 45 -24 48 -51 48 -502 0 -414 0
-425 21 -451 16 -20 29 -26 59 -26 68 0 74 20 80 253 l5 199 28 24 c32 27 88
32 107 9 9 -11 8 -24 -6 -62 -29 -75 -24 -168 17 -298 l34 -110 0 -270 c-1
-288 -8 -360 -52 -500 -47 -149 -132 -291 -245 -411 -62 -66 -78 -106 -78
-199 l0 -75 -394 0 -394 0 -4 95 -3 96 -128 120 c-70 67 -154 153 -186 193
-154 188 -272 417 -346 674 -29 100 -23 145 25 194 39 39 105 40 149 2 17 -14
84 -114 148 -222 64 -109 125 -207 136 -219 44 -50 108 -33 126 34 7 25 11
277 11 720 l0 681 26 31 c28 33 75 42 116 20 45 -24 48 -51 48 -502 0 -417 0
-425 21 -451 18 -23 28 -27 63 -24 36 3 43 8 58 38 16 32 18 80 18 558 0 445
2 527 15 552 25 48 68 62 119 39z m2526 -2479 l0 -150 -130 0 c-126 0 -132 -1
-155 -25 -17 -16 -25 -35 -25 -60 0 -25 8 -44 25 -60 23 -24 29 -25 155 -25
l130 0 0 -395 0 -395 -592 2 -593 3 -3 392 -2 391 134 4 c115 3 137 6 155 22
27 25 28 85 2 117 -18 23 -27 24 -153 29 l-133 5 -3 148 -3 147 596 0 595 0 0
-150z m-1940 -480 l0 -150 -590 0 -590 0 0 150 0 150 590 0 590 0 0 -150z m0
-480 l0 -150 -590 0 -590 0 0 150 0 150 590 0 590 0 0 -150z"/>
<path d="M4215 2135 c-49 -49 -17 -145 49 -145 41 0 80 41 80 85 0 29 -7 43
-28 61 -35 31 -70 30 -101 -1z"/>
</g>
</svg>
